<?xml version="1.0" standalone="no"?>
<!DOCTYPE svg PUBLIC "-//W3C//DTD SVG 20010904//EN"
 "http://www.w3.org/TR/2001/REC-SVG-20010904/DTD/svg10.dtd">
<svg version="1.0" xmlns="http://www.w3.org/2000/svg"
 width="700.000000pt" height="700.000000pt" viewBox="0 0 700.000000 700.000000"
 preserveAspectRatio="xMidYMid meet">
<metadata>
Created by potrace 1.11, written by Peter Selinger 2001-2013
</metadata>
<g transform="translate(0.000000,700.000000) scale(0.100000,-0.100000)"
fill="#000000" stroke="none">
<path d="M1295 6985 c-233 -33 -430 -107 -620 -233 -345 -228 -574 -576 -651
-987 -18 -96 -19 -193 -19 -2275 l0 -2175 23 -105 c68 -310 203 -561 413 -770
209 -209 456 -341 764 -412 l100 -22 2125 -4 c1484 -2 2154 0 2220 8 198 23
354 67 515 148 463 231 769 670 824 1184 15 137 15 4192 0 4325 -38 341 -195
663 -439 903 -206 202 -450 332 -755 402 l-100 22 -2155 2 c-1712 2 -2174 -1
-2245 -11z m1406 -2016 c32 -26 149 -235 727 -1312 l69 -129 30 54 c16 29 189
347 384 707 278 513 361 659 388 680 l34 26 286 3 c315 4 329 1 364 -58 16
-26 17 -140 17 -1509 l0 -1481 -34 -38 -34 -37 -310 0 c-236 0 -315 3 -333 13
-56 30 -54 -10 -59 884 l-5 827 -235 -447 c-129 -245 -249 -460 -265 -478 -40
-42 -88 -54 -225 -54 -141 0 -185 11 -230 59 -22 23 -122 204 -265 478 l-230
442 -5 -830 -5 -831 -32 -28 c-20 -18 -48 -31 -75 -35 -79 -12 -581 -1 -605
13 -56 32 -53 -55 -53 1547 0 1616 -4 1516 58 1550 23 12 74 14 318 12 l291
-2 34 -26z"/>
</g>
</svg>
