<svg width="14" height="14" viewBox="0 0 14 14" fill="none" xmlns="http://www.w3.org/2000/svg">
<path d="M13.9963 13.9999V13.9993H13.9998V8.85012C13.9998 6.33109 13.466 4.39062 10.5671 4.39062C9.17351 4.39062 8.23831 5.16751 7.85652 5.90403H7.81621V4.6258H5.06763V13.9993H7.92965V9.35791C7.92965 8.13583 8.15769 6.95412 9.64744 6.95412C11.1153 6.95412 11.1372 8.34877 11.1372 9.4363V13.9999H13.9963Z" fill="white"/>
<path d="M0.228027 4.62598H3.09351V13.9995H0.228027V4.62598Z" fill="white"/>
<path d="M1.65963 0C0.743435 0 0 0.755242 0 1.68599C0 2.61673 0.743435 3.38777 1.65963 3.38777C2.57582 3.38777 3.31926 2.61673 3.31926 1.68599C3.31868 0.755242 2.57525 0 1.65963 0V0Z" fill="white"/>
</svg>
