<svg width="56" height="56" viewBox="0 0 56 56" fill="none" xmlns="http://www.w3.org/2000/svg">
<rect width="56" height="56" rx="12" fill="url(#paint0_linear)"/>
<path d="M16.8978 41C16.6446 41 16.4259 40.9167 16.2417 40.75C16.0806 40.5833 16 40.369 16 40.1071V16.9286C16 16.6667 16.0806 16.4524 16.2417 16.2857C16.4259 16.0952 16.6446 16 16.8978 16H20.8C21.3755 16 21.7899 16.2619 22.0432 16.7857L27.9827 27.7857L33.9568 16.7857C34.2101 16.2619 34.6245 16 35.2 16H39.1022C39.3554 16 39.5626 16.0952 39.7237 16.2857C39.9079 16.4524 40 16.6667 40 16.9286V40.1071C40 40.369 39.9079 40.5833 39.7237 40.75C39.5626 40.9167 39.3554 41 39.1022 41H34.7165C34.4863 41 34.2791 40.9167 34.095 40.75C33.9338 40.5595 33.8532 40.3452 33.8532 40.1071V27.1071L30.1237 34.1786C29.8245 34.7262 29.4216 35 28.9151 35H27.0504C26.5899 35 26.1871 34.7262 25.8417 34.1786L22.1468 27.1071V40.1071C22.1468 40.369 22.0547 40.5833 21.8705 40.75C21.7094 40.9167 21.5022 41 21.2489 41H16.8978Z" fill="white"/>
<defs>
<linearGradient id="paint0_linear" x1="56" y1="56" x2="-3.52645" y2="4.03997" gradientUnits="userSpaceOnUse">
<stop stop-color="#AA66E9"/>
<stop offset="1" stop-color="#9340E0"/>
</linearGradient>
</defs>
</svg>
