<svg width="104" height="72" viewBox="0 0 104 72" fill="none" xmlns="http://www.w3.org/2000/svg">
<rect width="104" height="72" fill="#E5E5E5"/>
<g clip-path="url(#clip0)">
<rect width="1440" height="5909" transform="translate(-668 -2053)" fill="white"/>
<path d="M0 44.2525C0 34.8438 0.478161 27.5083 1.43448 22.2458C2.55019 16.8239 4.54253 12.5183 7.41149 9.3289C10.4398 5.98007 14.9824 3.58804 21.0391 2.15282C27.0958 0.717608 35.2245 0 45.4253 0V16.505C38.0935 16.505 33.3119 17.6213 31.0805 19.8538C29.9648 20.9701 29.1678 22.5648 28.6897 24.6379C28.3709 26.5515 28.2115 29.103 28.2115 32.2924V35.402H45.4253V72H0V44.2525ZM58.5747 44.2525C58.5747 34.8438 59.0529 27.5083 60.0092 22.2458C61.1249 16.8239 63.1172 12.5183 65.9862 9.3289C69.0146 5.98007 73.5571 3.58804 79.6138 2.15282C85.6705 0.717608 93.7992 0 104 0V16.505C96.6682 16.505 91.8866 17.6213 89.6552 19.8538C88.5395 20.9701 87.7425 22.5648 87.2644 24.6379C86.9456 26.5515 86.7862 29.103 86.7862 32.2924V35.402H104V72H58.5747V44.2525Z" fill="url(#paint0_linear)"/>
</g>
<defs>
<linearGradient id="paint0_linear" x1="1.3" y1="8.35714" x2="111.32" y2="25.7828" gradientUnits="userSpaceOnUse">
<stop stop-color="#F54B74"/>
<stop offset="1" stop-color="#F07995"/>
</linearGradient>
<clipPath id="clip0">
<rect width="1440" height="5909" fill="white" transform="translate(-668 -2053)"/>
</clipPath>
</defs>
</svg>
